<svg xmlns="http://www.w3.org/2000/svg" x="0px" y="0px" width="100" height="100" viewBox="0 0 100 100">
<circle cx="77" cy="13" r="1" fill="#f1bc19"></circle><circle cx="50" cy="50" r="37" fill="#e6edb7"></circle><circle cx="83" cy="15" r="4" fill="#f1bc19"></circle><circle cx="87" cy="24" r="2" fill="#9f8066"></circle><circle cx="81" cy="76" r="2" fill="#fbcd59"></circle><circle cx="15" cy="63" r="4" fill="#fbcd59"></circle><circle cx="25" cy="87" r="2" fill="#9f8066"></circle><circle cx="18.5" cy="51.5" r="2.5" fill="#fff"></circle><circle cx="79.5" cy="33.5" r="1.5" fill="#fff"></circle><path fill="#ee3e54" d="M49.924,68.3c-0.877,0-1.686-0.391-2.218-1.072c-0.46-0.59-1.127-0.928-1.831-0.928H25.583 c-0.487,0-0.883-0.396-0.883-0.883V35.583c0-0.487,0.396-0.883,0.883-0.883h47.833c0.487,0,0.883,0.396,0.883,0.883v29.834 c0,0.487-0.396,0.883-0.883,0.883H53.974c-0.704,0-1.371,0.338-1.831,0.928C51.609,67.909,50.801,68.3,49.924,68.3z"></path><path fill="#472b29" d="M73.417,35.4c0.101,0,0.183,0.083,0.183,0.184v29.833c0,0.101-0.082,0.184-0.183,0.184H53.974 c-0.921,0-1.789,0.436-2.383,1.197c-0.399,0.51-1.006,0.803-1.666,0.803c-0.66,0-1.268-0.293-1.667-0.804 c-0.594-0.76-1.462-1.196-2.383-1.196H25.583c-0.101,0-0.183-0.083-0.183-0.184V35.583c0-0.101,0.082-0.184,0.183-0.184H73.417 M73.417,34H25.583C24.709,34,24,34.709,24,35.583v29.833C24,66.291,24.709,67,25.583,67h20.291c0.508,0,0.967,0.258,1.28,0.658 C47.79,68.473,48.792,69,49.924,69c1.132,0,2.134-0.527,2.77-1.342c0.313-0.4,0.771-0.658,1.28-0.658h19.443 C74.291,67,75,66.291,75,65.417V35.583C75,34.709,74.291,34,73.417,34L73.417,34z"></path><path fill="#fdfcef" d="M28.625,62.3c-0.51,0-0.925-0.415-0.925-0.925v-30.75c0-0.51,0.415-0.925,0.925-0.925h10.359 c3.468,0,7.776,0.661,10.246,1.572c0.246,0.092,0.505,0.139,0.77,0.139s0.524-0.047,0.771-0.139 c2.468-0.911,6.778-1.572,10.245-1.572h9.359c0.51,0,0.925,0.415,0.925,0.925v30.75c0,0.51-0.415,0.925-0.925,0.925H28.625z"></path><path fill="#472b29" d="M70.375,30.4c0.124,0,0.225,0.101,0.225,0.225v30.75c0,0.124-0.101,0.225-0.225,0.225H51h-2H28.625 c-0.124,0-0.225-0.101-0.225-0.225v-30.75c0-0.124,0.101-0.225,0.225-0.225h10.36c3.341,0,7.641,0.658,10.004,1.53 c0.324,0.12,0.665,0.18,1.011,0.18s0.687-0.061,1.012-0.18c2.362-0.873,6.663-1.53,10.003-1.53H70.375 M70.375,29h-9.36 c-3.696,0-8.08,0.728-10.488,1.617c-0.17,0.063-0.348,0.094-0.527,0.094s-0.358-0.031-0.527-0.094 C47.065,29.728,42.68,29,38.985,29h-10.36C27.728,29,27,29.728,27,30.625v30.75C27,62.272,27.728,63,28.625,63H49h2h19.375 C71.272,63,72,62.272,72,61.375v-30.75C72,29.728,71.272,29,70.375,29L70.375,29z"></path><path fill="#d7ccc8" d="M72.022,61.534v4.488h2.326V62.69c-0.066,0.017-0.134,0.025-0.199,0.045 C73.572,62.157,72.836,61.746,72.022,61.534z"></path><path fill="#f6cca4" d="M76.105,55.625c-1.254,0-2.27,1.048-2.27,2.342v-1.171c0-1.293-1.016-2.342-2.27-2.342 c-1.254,0-2.27,1.048-2.27,2.342v-1.171c0-1.293-1.016-2.342-2.27-2.342c-1.254,0-2.693,0.674-2.693,1.967v-7.792 c0-1.293-0.476-2.458-1.729-2.458s-1.979,1.033-1.979,2.326v16.007l-3.549-3.138c-0.886-0.915-2.323-0.915-3.21,0 c-0.886,0.915-0.886,2.397,0,3.312l6.351,6.552c0,0,3.103,3.128,5.674,3.128h5.423c3.73,0,6.776-2.985,7.035-6.765 c0.009-0.086,0.025-0.171,0.025-0.26v-0.26v-6.327v-1.61C78.375,56.673,77.359,55.625,76.105,55.625z"></path><path fill="#472b29" d="M71.314,73.888h-5.423c-2.83,0-6.036-3.199-6.172-3.335l-6.356-6.559 c-1.146-1.181-1.146-3.104,0-4.286c1.124-1.157,3.091-1.159,4.215,0l2.347,2.072V47.326c0-1.782,1.102-3.026,2.68-3.026 c1.498,0,2.429,1.21,2.429,3.158v5.611c0.591-0.32,1.301-0.486,1.993-0.486c1.211,0,2.255,0.746,2.717,1.813 c0.503-0.402,1.136-0.643,1.822-0.643c1.211,0,2.255,0.746,2.717,1.813c0.504-0.402,1.137-0.643,1.823-0.643 c1.638,0,2.97,1.364,2.97,3.042v8.195c0,0.096-0.011,0.188-0.022,0.281C78.764,70.63,75.366,73.888,71.314,73.888z M55.472,60.21 c-0.416,0-0.808,0.168-1.104,0.473c-0.624,0.645-0.624,1.693,0,2.337l6.352,6.553c0.802,0.807,3.308,2.915,5.172,2.915h5.423 c3.318,0,6.103-2.685,6.337-6.112c0.001-0.015,0.012-0.101,0.013-0.115l0.011-0.357v-7.936c0-0.905-0.704-1.642-1.569-1.642 s-1.569,0.736-1.569,1.642c0,0.387-0.313,0.7-0.7,0.7s-0.7-0.313-0.7-0.7v-1.171c0-0.905-0.704-1.642-1.57-1.642 c-0.865,0-1.569,0.736-1.569,1.642c0,0.387-0.313,0.7-0.7,0.7s-0.7-0.313-0.7-0.7v-1.171c0-0.905-0.704-1.642-1.569-1.642 c-0.804,0-1.993,0.402-1.993,1.267c0,0.387-0.313,0.7-0.7,0.7s-0.7-0.313-0.7-0.7v-7.792c0-0.656-0.134-1.758-1.028-1.758 c-0.944,0-1.279,0.876-1.279,1.626v16.007c0,0.275-0.161,0.525-0.412,0.638c-0.252,0.114-0.545,0.068-0.752-0.113l-3.549-3.138 C56.278,60.378,55.887,60.21,55.472,60.21z"></path><path fill="#472b29" d="M49.5,38c-0.276,0-0.5-0.224-0.5-0.5V32c0-0.276,0.224-0.5,0.5-0.5S50,31.724,50,32v5.5 C50,37.776,49.776,38,49.5,38z"></path><path fill="#472b29" d="M49.5,45c-0.276,0-0.5-0.224-0.5-0.5V40c0-0.276,0.224-0.5,0.5-0.5S50,39.724,50,40v4.5 C50,44.776,49.776,45,49.5,45z"></path><path fill="#472b29" d="M49.5,59c-0.276,0-0.5-0.224-0.5-0.5V47c0-0.276,0.224-0.5,0.5-0.5S50,46.724,50,47v11.5 C50,58.776,49.776,59,49.5,59z"></path><path fill="#472b29" d="M47,36c-0.048,0-0.097-0.007-0.145-0.021C43.667,35.011,39.352,35,39.309,35l-2.188-0.017 c-0.276-0.002-0.498-0.228-0.496-0.504c0.002-0.274,0.226-0.496,0.5-0.496c0.001,0,0.002,0,0.004,0L39.313,34 c0.179,0,4.503,0.012,7.832,1.021c0.264,0.08,0.414,0.359,0.333,0.624C47.413,35.861,47.215,36,47,36z"></path><path fill="#472b29" d="M35.125,34.969c-0.001,0-0.002,0-0.004,0l-4.125-0.031c-0.276-0.002-0.498-0.228-0.496-0.504 c0.002-0.274,0.226-0.496,0.5-0.496c0.001,0,0.002,0,0.004,0l4.125,0.031c0.276,0.002,0.498,0.228,0.496,0.504 C35.624,34.747,35.4,34.969,35.125,34.969z"></path><path fill="#472b29" d="M47,40c-0.048,0-0.097-0.007-0.145-0.021c-0.875-0.266-1.917-0.483-3.098-0.648 c-0.273-0.038-0.464-0.291-0.426-0.564s0.291-0.463,0.564-0.426c1.232,0.172,2.325,0.401,3.249,0.682 c0.265,0.08,0.414,0.359,0.333,0.624C47.413,39.861,47.215,40,47,40z"></path><path fill="#472b29" d="M41.503,39.093c-0.012,0-0.024,0-0.036-0.001C40.209,39.001,39.318,39,39.309,39l-8.313-0.063 c-0.276-0.002-0.498-0.228-0.496-0.504c0.002-0.274,0.226-0.496,0.5-0.496c0.001,0,0.002,0,0.004,0L39.313,38 c0.01-0.009,0.919,0,2.225,0.094c0.275,0.021,0.483,0.26,0.463,0.535C41.982,38.892,41.763,39.093,41.503,39.093z"></path><path fill="#472b29" d="M47,44c-0.048,0-0.097-0.007-0.145-0.021C43.667,43.011,39.352,43,39.309,43 c-0.276,0-0.5-0.224-0.5-0.5s0.224-0.5,0.5-0.5c0.183,0,4.507,0.012,7.836,1.021c0.264,0.08,0.414,0.359,0.333,0.624 C47.413,43.861,47.215,44,47,44z"></path><path fill="#472b29" d="M37.5,42.986c-0.001,0-0.002,0-0.004,0l-6.5-0.049c-0.276-0.002-0.498-0.228-0.496-0.504 c0.002-0.274,0.226-0.496,0.5-0.496c0.001,0,0.002,0,0.004,0l6.5,0.049c0.276,0.002,0.498,0.228,0.496,0.504 C37.999,42.765,37.775,42.986,37.5,42.986z"></path><path fill="#472b29" d="M47,48c-0.048,0-0.097-0.007-0.145-0.021c-1.785-0.541-3.916-0.781-5.388-0.887 c-0.276-0.021-0.483-0.26-0.463-0.535c0.02-0.275,0.26-0.48,0.534-0.463c1.524,0.11,3.733,0.359,5.607,0.928 c0.264,0.08,0.414,0.359,0.333,0.624C47.413,47.861,47.215,48,47,48z"></path><path fill="#472b29" d="M39.309,47c-0.001,0-0.002,0-0.004,0l-8.309-0.063c-0.276-0.002-0.498-0.228-0.496-0.504 c0.002-0.274,0.226-0.496,0.5-0.496c0.001,0,0.002,0,0.004,0L39.313,46c0.276,0.002,0.498,0.228,0.496,0.504 C39.807,46.778,39.583,47,39.309,47z"></path><path fill="#472b29" d="M47,52c-0.048,0-0.097-0.007-0.145-0.021c-0.64-0.193-1.376-0.364-2.188-0.507 c-0.272-0.048-0.454-0.307-0.406-0.578c0.048-0.272,0.306-0.457,0.579-0.406c0.852,0.149,1.627,0.329,2.305,0.534 c0.264,0.08,0.414,0.359,0.333,0.623C47.413,51.861,47.215,52,47,52z"></path><path fill="#472b29" d="M43.133,51.246c-0.02,0-0.039-0.001-0.059-0.003C41.032,51.003,39.326,51,39.309,51l-2.751-0.021 c-0.276-0.002-0.498-0.228-0.496-0.504c0.002-0.274,0.226-0.496,0.5-0.496c0.001,0,0.002,0,0.004,0L39.313,50 c0.068,0,1.774,0.003,3.878,0.249c0.274,0.032,0.471,0.281,0.438,0.556C43.6,51.059,43.383,51.246,43.133,51.246z"></path><path fill="#472b29" d="M34.563,50.964c-0.001,0-0.002,0-0.004,0l-3.563-0.026c-0.276-0.002-0.498-0.228-0.496-0.504 c0.002-0.274,0.226-0.496,0.5-0.496c0.001,0,0.002,0,0.004,0l3.563,0.026c0.276,0.002,0.498,0.228,0.496,0.504 C35.061,50.742,34.837,50.964,34.563,50.964z"></path><path fill="#472b29" d="M47,56c-0.048,0-0.097-0.007-0.145-0.021c-1.783-0.541-3.912-0.781-5.384-0.887 c-0.276-0.021-0.483-0.26-0.463-0.535c0.019-0.275,0.267-0.474,0.534-0.463c1.523,0.11,3.731,0.359,5.603,0.928 c0.265,0.08,0.414,0.359,0.333,0.624C47.413,55.861,47.215,56,47,56z"></path><path fill="#472b29" d="M39.309,55c-0.001,0-0.002,0-0.004,0l-8.309-0.063c-0.276-0.002-0.498-0.228-0.496-0.504 c0.002-0.274,0.226-0.496,0.5-0.496c0.001,0,0.002,0,0.004,0L39.313,54c0.276,0.002,0.498,0.228,0.496,0.504 C39.807,54.778,39.583,55,39.309,55z"></path><path fill="#472b29" d="M52,36c-0.215,0-0.413-0.139-0.479-0.354c-0.08-0.265,0.069-0.544,0.333-0.624 C55.184,34.012,59.509,34,59.691,34l2.179-0.017c0.001,0,0.003,0,0.004,0c0.274,0,0.498,0.222,0.5,0.496 c0.002,0.276-0.22,0.502-0.496,0.504L59.695,35c-0.047,0-4.365,0.013-7.55,0.979C52.097,35.993,52.048,36,52,36z"></path><g><path fill="#472b29" d="M63.874,34.969c-0.274,0-0.498-0.222-0.5-0.496c-0.002-0.276,0.22-0.502,0.496-0.504l4.126-0.031 c0.261-0.006,0.502,0.221,0.504,0.496c0.002,0.276-0.22,0.502-0.496,0.504l-4.126,0.031C63.877,34.969,63.875,34.969,63.874,34.969 z"></path></g><g><path fill="#472b29" d="M52,40c-0.215,0-0.413-0.139-0.479-0.354c-0.08-0.265,0.069-0.544,0.333-0.624 c0.925-0.28,2.018-0.51,3.249-0.682c0.264-0.032,0.525,0.151,0.564,0.426c0.038,0.273-0.152,0.526-0.426,0.564 c-1.18,0.165-2.222,0.383-3.097,0.648C52.097,39.993,52.048,40,52,40z"></path></g><g><path fill="#472b29" d="M57.497,39.093c-0.26,0-0.479-0.201-0.498-0.464c-0.02-0.275,0.188-0.515,0.463-0.535 C58.757,38.001,59.654,38,59.691,38l8.305-0.063c0.001,0,0.003,0,0.004,0c0.274,0,0.498,0.222,0.5,0.496 c0.002,0.276-0.22,0.502-0.496,0.504L59.695,39c-0.013,0-0.905,0.001-2.161,0.092C57.521,39.093,57.51,39.093,57.497,39.093z"></path></g><g><path fill="#472b29" d="M52,44c-0.215,0-0.413-0.139-0.479-0.354c-0.08-0.265,0.069-0.544,0.333-0.624 C55.184,42.012,59.509,42,59.691,42c0.276,0,0.5,0.224,0.5,0.5s-0.224,0.5-0.5,0.5c-0.043,0-4.361,0.013-7.546,0.979 C52.097,43.993,52.048,44,52,44z"></path></g><g><path fill="#472b29" d="M61.499,42.986c-0.274,0-0.498-0.222-0.5-0.496c-0.002-0.276,0.22-0.502,0.496-0.504l6.501-0.049 c0.261-0.02,0.502,0.221,0.504,0.496c0.002,0.276-0.22,0.502-0.496,0.504l-6.501,0.049C61.502,42.986,61.5,42.986,61.499,42.986z"></path></g><g><path fill="#472b29" d="M52,48c-0.215,0-0.413-0.139-0.479-0.354c-0.08-0.265,0.069-0.544,0.333-0.624 c1.874-0.568,4.084-0.817,5.607-0.928c0.275-0.023,0.515,0.188,0.535,0.463c0.02,0.275-0.188,0.515-0.463,0.535 c-1.474,0.105-3.604,0.346-5.389,0.887C52.097,47.993,52.048,48,52,48z"></path></g><g><path fill="#472b29" d="M52,52c-0.215,0-0.413-0.139-0.479-0.355c-0.08-0.264,0.069-0.543,0.334-0.623 c0.678-0.205,1.453-0.385,2.305-0.534c0.259-0.061,0.53,0.133,0.578,0.406c0.048,0.271-0.134,0.53-0.406,0.578 c-0.812,0.143-1.548,0.313-2.188,0.507C52.097,51.993,52.048,52,52,52z"></path></g><g><path fill="#472b29" d="M52,56c-0.215,0-0.413-0.139-0.479-0.354c-0.08-0.265,0.069-0.544,0.333-0.624 c1.872-0.568,4.08-0.818,5.603-0.928c0.27-0.018,0.515,0.188,0.535,0.463c0.02,0.275-0.188,0.515-0.463,0.535 c-1.472,0.105-3.601,0.346-5.384,0.887C52.097,55.993,52.048,56,52,56z"></path></g><g><path fill="#472b29" d="M75.5,65.75c-0.138,0-0.25-0.112-0.25-0.25v-2c0-0.138,0.112-0.25,0.25-0.25s0.25,0.112,0.25,0.25v2 C75.75,65.638,75.638,65.75,75.5,65.75z"></path></g><g><path fill="#472b29" d="M73.235,70.267c-0.086,0-0.169-0.044-0.216-0.124c-0.069-0.119-0.029-0.272,0.09-0.342 c0.932-0.544,1.621-1.503,1.939-2.699c0.035-0.133,0.175-0.208,0.306-0.177c0.133,0.035,0.213,0.172,0.177,0.306 c-0.353,1.324-1.123,2.391-2.17,3.002C73.321,70.256,73.278,70.267,73.235,70.267z"></path></g><g><path fill="#472b29" d="M71.5,70.75h-4c-0.138,0-0.25-0.112-0.25-0.25s0.112-0.25,0.25-0.25h4c0.138,0,0.25,0.112,0.25,0.25 S71.638,70.75,71.5,70.75z"></path></g>
</svg>