<svg xmlns="http://www.w3.org/2000/svg" enable-background="new 0 0 1000 1000" viewBox="0 0 1000 1000" id="blackboard"><path fill="#4a6d8b" d="M0 0h1000v1000H0z"></path><path fill="#395d77" d="M757.429 300.712H601.56v-52H645c14.359 0 26-11.641 26-26s-11.641-26-26-26H389.56c-14.359 0-26 11.641-26 26s11.641 26 26 26h55.381c14.359 0 26 11.641 26 26s-11.641 26-26 26H266.893c-14.359 0-26 11.641-26 26s11.641 26 26 26h70.774c14.359 0 26 11.641 26 26s-11.641 26-26 26h-29.925c-14.359 0-26 11.641-26 26s11.641 26 26 26h98.647v52h-76.022c-14.359 0-26 11.641-26 26s11.641 26 26 26h138.574c14.359 0 26 11.641 26 26s-11.641 26-26 26h-77.469c-14.359 0-26 11.641-26 26s11.641 26 26 26h296.636c14.359 0 26-11.641 26-26s-11.641-26-26-26h-74.549v-52h23.648c14.359 0 26-11.641 26-26s-11.641-26-26-26h-23.648v-52h98.647c14.359 0 26-11.641 26-26s-11.641-26-26-26h3.651v-52h41.571c14.359 0 26-11.641 26-26 .001-14.359-11.64-26-25.999-26z" opacity=".69"></path><path fill="#825d7e" d="M265.806 506.267h-27.164c-14.359 0-26-11.641-26-26s11.641-26 26-26h27.164c14.359 0 26 11.641 26 26s-11.641 26-26 26z" opacity=".5"></path><path fill="#4a6d8b" d="M515.832 404.712h-52.684c-14.359 0-26-11.641-26-26s11.641-26 26-26h52.684c14.359 0 26 11.641 26 26 0 14.36-11.641 26-26 26zM747.926 404.712H636.198c-14.359 0-26-11.641-26-26s11.641-26 26-26h111.728c14.359 0 26 11.641 26 26 0 14.36-11.641 26-26 26zM653.199 508.712H541.47c-14.359 0-26-11.641-26-26s11.641-26 26-26h111.728c14.359 0 26 11.641 26 26 .001 14.36-11.64 26-25.999 26z"></path><path fill="#684463" d="M384.231 451.712H272.503c-14.359 0-26-11.641-26-26s11.641-26 26-26h111.728c14.359 0 26 11.641 26 26 0 14.36-11.641 26-26 26z"></path><path fill="#4a6d8b" d="M713.562 300.712H601.834c-14.359 0-26-11.641-26-26s11.641-26 26-26h111.728c14.359 0 26 11.641 26 26 0 14.36-11.641 26-26 26zM719.439 612.712H607.711c-14.359 0-26-11.641-26-26s11.641-26 26-26h111.728c14.359 0 26 11.641 26 26 0 14.36-11.641 26-26 26z"></path><path fill="#395d77" d="M705.199 560.712h36.186c14.359 0 26-11.641 26-26s-11.641-26-26-26h-36.186c-14.359 0-26 11.641-26 26 0 14.36 11.64 26 26 26zM793.43 456.712h-12.404c-14.359 0-26-11.641-26-26s11.641-26 26-26h12.404c14.359 0 26 11.641 26 26 0 14.36-11.64 26-26 26zM272.503 664.712h48.615c14.359 0 26-11.641 26-26s-11.641-26-26-26h-48.615c-14.359 0-26 11.641-26 26 0 14.36 11.64 26 26 26zM195.283 352.712c14.359 0 26-11.641 26-26s-11.641-26-26-26-26 11.641-26 26c0 14.36 11.641 26 26 26z" opacity=".69"></path><path fill="#2d4659" d="M888.164 713.47H111.836c-7.177 0-12.995-5.818-12.995-12.995s5.818-12.995 12.995-12.995h776.328c7.177 0 12.995 5.818 12.995 12.995s-5.818 12.995-12.995 12.995z" opacity=".56"></path><path fill="#8bbf98" d="M435.698 599.48h20v100h-20z"></path><path fill="#63916e" d="M455.698 599.48h12v100h-12z"></path><path fill="#8bbf98" d="M547.698 599.48h20v100h-20z"></path><path fill="#63916e" d="M567.698 599.48h12v100h-12z"></path><path fill="#8bbf98" d="M631.698 599.48h20v100h-20z"></path><path fill="#63916e" d="M651.698 599.48h12v100h-12z"></path><path fill="#8bbf98" d="M716.062 619.48h12v80h-12z"></path><path fill="#63916e" d="M728.062 619.48h8v80h-8z"></path><path fill="#8bbf98" d="M792.029 619.48h12v80h-12z"></path><path fill="#63916e" d="M804.029 619.48h8v80h-8z"></path><path fill="#55845f" d="M804.029 619.48h8v4h-8z"></path><path fill="#63916e" d="M792.029 619.48h12v4h-12z"></path><path fill="#8bbf98" d="M761.385 507.48h12v192h-12z"></path><path fill="#63916e" d="M773.385 507.48h8v192h-8z"></path><path fill="#8bbf98" d="M837.352 507.48h12v192h-12z"></path><path fill="#63916e" d="M849.352 507.48h8v192h-8z"></path><path fill="#ef6562" d="M431.148 547.48h-23.597v-172h23.597a6 6 0 0 1 6 6v160a6 6 0 0 1-6 6z"></path><path fill="#ec958b" d="M423.624 547.48h-244a6 6 0 0 1-6-6v-160a6 6 0 0 1 6-6h244a6 6 0 0 1 6 6v160a6 6 0 0 1-6 6z"></path><path fill="#34515b" d="M227.551 345.388h148v232h-148z" transform="rotate(90 301.55 461.388)"></path><path fill="#d84e4e" d="M113.051 459.888h148v3h-148z" transform="rotate(90 187.051 461.388)"></path><path fill="#284249" d="M413.801 387.388h3.75v148h-3.75z"></path><path fill="#d84e4e" d="M304.164 547.48h18.22v152h-18.22z"></path><path fill="#ef6562" d="M296.551 547.48h18.22v152h-18.22z"></path><path fill="#d84e4e" d="M296.551 547.48h18.22v7.409h-18.22z"></path><path fill="#ef6562" d="M376.56 699.48H253.893v-12c0-6.627 5.373-12 12-12h98.667c6.627 0 12 5.373 12 12v12z"></path><path fill="#ec958b" d="M365.472 699.48H242.805v-12c0-6.627 5.373-12 12-12h98.667c6.627 0 12 5.373 12 12v12z"></path><path fill="#8bbf98" d="M435.698 580.388h132v19.091h-132z"></path><path fill="#63916e" d="M567.698 580.388h96v19.091h-96z"></path><path fill="#9fd6a3" d="M428.661 567.055h129.036v13.333H428.661z"></path><path fill="#63916e" d="M435.698 580.388h132v4h-132z"></path><path fill="#83b78d" d="M557.698 567.055h115.558v13.333H557.698z"></path><path fill="#81b58c" d="M710.415 603.48h96v16h-96z"></path><path fill="#63916e" d="M806.4 603.48h56v16h-56z"></path><path fill="#81b58c" d="M773.385 517.347h63.967v36h-63.967z"></path><path fill="#55845f" d="M849.352 619.48h8v4h-8z"></path><path fill="#63916e" d="M837.352 619.48h12v4h-12zM761.385 619.48h12v4h-12zM716.062 619.48h12v4h-12z"></path><path fill="#55845f" d="M728.062 619.48h8v4h-8zM773.385 619.48h8.027v4h-8.027z"></path><path fill="#577f5d" d="M567.698 580.388h96v4h-96z"></path><path fill="#dd5858" d="M600.998 453.635h9.426v84.833h-9.426z" transform="rotate(-7.666 605.701 496.043)"></path><path fill="#ef6562" d="M596.538 456.152h10.604v22.288h-10.604z" transform="rotate(-7.666 601.831 467.288)"></path><path fill="#e8e8e8" d="M593.419 459.036h2.046v1.424h-2.046z" transform="rotate(-7.666 594.433 459.739)"></path><path fill="#e8e8e8" d="m596.227 476.25-.585.079-2.119-15.74 1.448-.195 2.003 14.878a.871.871 0 0 1-.747.978z"></path><path fill="#d35050" d="M598.686 478.336h9.426v1.08h-9.426z" transform="rotate(-7.666 603.39 478.868)"></path><path fill="#e8e8e8" d="m583.69 479.585-8.112 2.538-3.719-11.89a3 3 0 0 1 1.968-3.759l2.386-.746a3 3 0 0 1 3.759 1.968l3.718 11.889z"></path><path fill="#35393d" d="M576.589 480.358h12.583v21.75h-12.583z" transform="rotate(-17.369 582.816 491.133)"></path><path fill="#808284" d="m578.997 500.73 9.759-12.345-2.074-6.63-9.759 12.345z"></path><path fill="#3b4044" d="M586.974 500.611h11.417v43.917h-11.417z" transform="rotate(-17.369 592.618 522.463)"></path><path fill="#6d6f70" d="M588.978 501.177h3.792v43.917h-3.792z" opacity=".66" transform="rotate(-17.369 590.809 523.03)"></path><path fill="#c5e1df" d="m633.912 463.911-3.934-.58-4.875 8.755 10.947 1.615z"></path><path fill="#b3dbad" d="m621.391 545.344-2.946-.435a4.044 4.044 0 0 1-3.41-4.591l10.069-68.233 10.947 1.615-10.069 68.233a4.045 4.045 0 0 1-4.591 3.411z"></path><path fill="#68a575" d="m617.282 544.737-.764-.113a2.096 2.096 0 0 1-1.768-2.38l10.353-70.159 2.838.419-10.659 72.233zM623.317 545.628l-.764-.113 10.659-72.233 2.838.419-10.353 70.159a2.096 2.096 0 0 1-2.38 1.768z"></path><path fill="#6f5a66" d="m633.912 463.911-.877-4.013c-.131-.601-.76-.694-1.059-.156l-1.998 3.589 3.934.58z"></path><path fill="#a5ceca" d="m633.912 463.911-1.866-.275 1.166 9.646 2.838.419z"></path><path fill="#f2e07c" d="M633.922 567.055h-56V509.48a2 2 0 0 1 2-2h52a2 2 0 0 1 2 2v57.575z"></path><path fill="#dfbb4d" d="M625.922 507.48v59.575h8V509.48a2 2 0 0 0-2-2h-6z"></path><path fill="#6e7ee0" d="M564.255 537.267h31.065v29.788h-31.065z"></path><path fill="#7a8ce2" d="M564.255 537.267h3.442v29.788h-3.442z"></path><path fill="#6373c1" d="M590.873 537.267h4.508v29.788h-4.508z" transform="rotate(-180 593.128 552.161)"></path><path fill="#dfbb4d" d="M595.382 537.267h2.818v29.788h-2.818z" transform="rotate(-180 596.79 552.161)"></path><path fill="#ec958b" d="M471.529 543.644h23.411v23.411h-23.411z"></path><path fill="#ef6562" d="M471.529 543.644h23.411v1.073h-23.411zM494.941 543.644h12.393v23.411h-12.393z"></path><path fill="#fff" d="M485.688 558.748h-3.907l-.646 1.869h-2.066l3.527-9.823h2.291l3.527 9.823h-2.08l-.646-1.869zm-1.953-5.678-1.419 4.104h2.839l-1.42-4.104z"></path><path fill="#e8b58b" d="M504.695 543.644h23.411v23.411h-23.411z"></path><path fill="#e09d6c" d="M528.107 543.644H540.5v23.411h-12.393z"></path><path fill="#fff" d="M516.521 550.808c2.361 0 3.542 1.363 3.542 3.008 0 1.194-.661 2.403-2.234 2.824l2.347 3.978H517.9l-2.165-3.822h-.927v3.822h-1.968v-9.81h3.681zm-.071 1.63h-1.644v2.881h1.644c1.097 0 1.588-.576 1.588-1.462 0-.871-.491-1.419-1.588-1.419z"></path><path fill="#1bb1b2" d="M465.333 520.232h23.411v23.411h-23.411z"></path><path fill="#19a5a1" d="M488.744 520.232h12.393v23.411h-12.393z"></path><path fill="#fff" d="M480.194 527.396h2.094l-3.598 9.809h-2.389l-3.598-9.809h2.108l2.698 7.799 2.685-7.799z"></path><path fill="#ef6562" d="M187.228 693.297c-12.492 9.113-30.007 6.373-39.119-6.119-9.113-12.492-6.373-30.007 6.119-39.12l33 45.239z"></path><path fill="#f2e07c" d="M154.228 648.058c12.492-9.113 30.007-6.373 39.12 6.119 9.113 12.492 6.373 30.007-6.119 39.12l-33.001-45.239z"></path><path fill="#a59a63" d="M174.884 642.986c10.574 4.002 18.094 14.216 18.094 26.191 0 15.464-12.536 28-28 28-1.412 0-2.8-.107-4.156-.309a27.917 27.917 0 0 0 9.906 1.809c15.464 0 28-12.536 28-28 0-14.051-10.351-25.683-23.844-27.691z" opacity=".25"></path><path fill="#d1d1d1" d="M278.904 472.444a60.2 60.2 0 0 0 1.601-3.332 87.694 87.694 0 0 0 1.441-3.465 85.24 85.24 0 0 0 2.436-7.111c.186-.598.358-1.201.514-1.807l.482-1.815c.282-1.219.594-2.432.821-3.662.264-1.223.464-2.456.66-3.689.211-1.231.32-2.474.486-3.71l.103-.77.472-.442.001-.001c.474-.482 1.299-.966 2.184-1.03.881-.074 1.601.185 2.124.454 1.049.567 1.655 1.228 2.232 1.869 1.109 1.295 1.92 2.622 2.69 3.962 1.512 2.684 2.742 5.427 3.89 8.2a130.295 130.295 0 0 1 3.113 8.413c.932 2.842 1.808 5.688 2.434 8.666a.95.95 0 0 1-1.846.448l-.005-.02c-.757-2.777-1.786-5.544-2.861-8.264a127.116 127.116 0 0 0-3.529-8.042c-1.271-2.624-2.629-5.214-4.168-7.602-.769-1.181-1.596-2.337-2.474-3.237-.425-.44-.909-.819-1.185-.923-.136-.059-.154-.012-.013-.011.144.003.284-.1.242-.055l.575-1.211c-.173 1.303-.29 2.616-.511 3.911-.205 1.298-.417 2.594-.693 3.877-.239 1.291-.564 2.561-.861 3.839l-.504 1.9a41.066 41.066 0 0 1-.538 1.889 89.353 89.353 0 0 1-2.545 7.43 92.414 92.414 0 0 1-1.511 3.633c-.544 1.204-1.089 2.381-1.73 3.595a1.999 1.999 0 1 1-3.537-1.867l.01-.02z"></path><path fill="#d1d1d1" d="m280.435 459.402 25.037-2.556a1.637 1.637 0 0 1 .379 3.253l-24.952 3.277a2 2 0 1 1-.521-3.967c.016-.003.041-.005.057-.007z"></path><path fill="#8bbf98" d="M833.847 528.159H822.88a3 3 0 1 1 0-6h10.967a3 3 0 1 1 0 6zM825.903 537.451h-12.047a3 3 0 1 1 0-6h12.047a3 3 0 1 1 0 6z"></path><path fill="#8bbf98" d="M816.43 548.534h-36.046a3 3 0 1 1 0-6h36.046a3 3 0 1 1 0 6z" opacity=".74"></path><path fill="#ef6562" d="M281.5 687.48h-22.979a3 3 0 1 1 0-6H281.5a3 3 0 1 1 0 6zM304.25 687.48h-6.729a3 3 0 1 1 0-6h6.729a3 3 0 1 1 0 6zM354 694.98h-26.75a3 3 0 1 1 0-6H354a3 3 0 1 1 0 6z" opacity=".23"></path><path fill="#ef6562" d="M343.25 694.98H338a3 3 0 1 1 0-6h5.25a3 3 0 1 1 0 6z" opacity=".23"></path><path fill="#8bbf98" d="M797.439 537.451h-5.25a3 3 0 1 1 0-6h5.25a3 3 0 1 1 0 6zM806.526 528.159h-25.013a3 3 0 1 1 0-6h25.013a3 3 0 1 1 0 6z"></path><path fill="#63916e" d="M472.091 589.934h-20.787a1.655 1.655 0 0 1 0-3.31h20.787a1.656 1.656 0 0 1 0 3.31zM487.982 589.934h-9.495a1.655 1.655 0 0 1 0-3.31h9.495a1.655 1.655 0 0 1 0 3.31zM500.875 595.684h-20.498a1.655 1.655 0 0 1 0-3.31h20.498a1.656 1.656 0 0 1 0 3.31zM537.353 595.684h-6.1a1.655 1.655 0 0 1 0-3.31h6.1a1.655 1.655 0 0 1 0 3.31zM543.55 590.851h-6.1a1.655 1.655 0 0 1 0-3.31h6.1a1.656 1.656 0 0 1 0 3.31z" opacity=".18"></path><path fill="#8bbf98" d="M607.59 595.684h-23.479a1.655 1.655 0 0 1 0-3.31h23.479c.914 0 1.655.741 1.655 1.655a1.656 1.656 0 0 1-1.655 1.655zM641.088 595.684h-6.1a1.655 1.655 0 0 1 0-3.31h6.1c.914 0 1.655.741 1.655 1.655a1.656 1.656 0 0 1-1.655 1.655zM614.043 590.022h-13.15a1.655 1.655 0 0 1 0-3.31h13.15a1.655 1.655 0 0 1 0 3.31z" opacity=".26"></path></svg>