<svg xmlns="http://www.w3.org/2000/svg" enable-background="new 0 0 300 225" viewBox="0 0 300 225" id="businessman-doing-data-analysis"><g><g><path fill="none" stroke="#000" stroke-miterlimit="10" stroke-width=".316" d="M165.2,209.19c45.19-8.31,80.16-37.66,87.93-74.76c13.81-65.91-77.85-58.27-96.18-75.47
			c-26.7-25.04-51.63-27.08-72.97-16.43c-26.69,13.32-5,31.6-40.29,53.89c-22.97,14.51-26.16,34.63-20.78,53.34
			c7.65,26.57,31.99,47.8,63.77,56.64C106.54,211.92,133.11,215.09,165.2,209.19z"></path></g><path fill="#ff7f6e" d="M66.48,114.71c0,0-1.13,30.47,17.8,47.94c0,0,15.06-10.32,8.8-45.06l-12.68-3.46L66.48,114.71z"></path><polygon fill="#fff" stroke="#000" stroke-linecap="round" stroke-linejoin="round" stroke-miterlimit="10" stroke-width=".316" points="71.59 115.12 72.88 106 85.82 107.81 87.16 117.49 79.87 124.4"></polygon><path d="M80.32,89.52c-0.59-1.53-10.92-2.38-12.26-3.39c-1.2-0.91-2.35-1.59-3.76-1.26c-1.98,0.46-3.58,3.4-3.83,6.34
		c-0.22,2.63-0.29,6.67,0.48,10.24c2.15,9.86,9.07,11.02,9.07,11.02c3.38,0.26,4.19-3.12,5.19-4.25
		C75.21,108.21,80.91,91.05,80.32,89.52z"></path><path fill="#fff" stroke="#000" stroke-linecap="round" stroke-linejoin="round" stroke-miterlimit="10" stroke-width=".316" d="M68.61,100.35c0.44,7.69,7.05,14.69,12.02,13.68c7.12-1.45,7.45-6.8,8.35-14.45
		c1.25-10.57-4.9-13.68-9.95-13.39C73.97,86.48,68.16,92.66,68.61,100.35z"></path><path d="M90.2,84.06c-3.47-0.24-8.04-4.37-14.61-5.24c-8.32-1.1-10.75,6.22-10.75,6.22s1.37,3.69,8.71,5.71
		c7.34,2.03,16.83,3.27,20.3-1.04c0,0,3.09-4.09-0.66-8.17C93.18,81.55,92.8,84.24,90.2,84.06z"></path><g><ellipse cx="69.83" cy="100.96" fill="#fff" rx="5.45" ry="4.35" transform="rotate(-82.114 69.83 100.96)"></ellipse><g><path d="M67.79,103.4c0.16,0.04,0.34-0.03,0.42-0.19c0.25-0.45,0.55-0.7,0.93-0.79c0.74-0.17,1.52,0.39,1.53,0.4
				c0.11,0.08,0.24,0.09,0.36,0.05c0.12-0.05,0.21-0.15,0.23-0.28c0.61-3.06-1.58-4.53-1.68-4.59c-0.18-0.12-0.41-0.07-0.53,0.11
				c-0.11,0.18-0.07,0.41,0.11,0.53l0,0c0.07,0.05,1.6,1.09,1.42,3.27c-0.41-0.19-1-0.36-1.62-0.23c-0.6,0.13-1.08,0.52-1.43,1.17
				c-0.1,0.18-0.04,0.42,0.15,0.52C67.73,103.38,67.76,103.39,67.79,103.4z"></path></g></g><path d="M102.43,118.72L102.43,118.72c11.44,2.8,12.32,4.91,14.56,11.17l18.9,52.95c1.91,5.58-1.06,11.65-6.64,13.56
		c-5.58,1.91-14.75,0.35-16.66-5.23l-16.83-47.23L102.43,118.72z"></path><path fill="#fff" d="M82.13,123.45l-3.88-0.03l-2.71,29.54c1.42,5.42,8.62,11.28,8.62,11.28s4.93-7.07,5.48-8.97L82.13,123.45z"></path><polygon fill="#ff7f6e" points="91.56 117.14 83.34 126.22 79.97 123.41 86.83 115.91"></polygon><path d="M83.72,159.14c0,0,12.93-14.49,7.84-42c0,0,6.14-0.28,17.63,3.61l-3.3,90.7c-0.17,1.38-1.38,2.4-2.77,2.32l-57.49,0.04
		c-1.37-0.07-2.45-1.18-2.5-2.55l-0.26-90.01c-0.13-2.56,2.16-4.13,4.7-4.43c5.59-0.66,13.96-2.39,18.9-2.12
		C66.48,114.71,70.34,145.76,83.72,159.14z"></path><polygon fill="#ff7f6e" points="66.48 114.71 75.63 126.24 79.97 123.41 71.57 114.5"></polygon><g><path fill="#fff" stroke="#000" stroke-linecap="round" stroke-linejoin="round" stroke-miterlimit="10" stroke-width=".316" d="M68.31 182.61c0 0 12.6-5.31 24.45-3.44 0 0 5.13 1.24.2 6.15 0 0 9.18 2.52 12.01 8 2.83 5.49-2.26 5.12-2.26 5.12l1.88 3.99c.69 1.47.25 3.22-1.05 4.2l-.11.08c-.95.71-2.26.63-3.12-.18l0 0 0 0c.39 1.33-.17 2.75-1.35 3.46l-.05.03c-1.14.69-2.6.55-3.6-.35l-.4-.36.29 1.06c.34 1.22-.2 2.52-1.3 3.15l0 0c-1.05.6-2.36.45-3.25-.36l-.98-.89c0 0-3.73-5.73-10.86-4.34-1.63.32-3.32.25-4.92-.17l-1.41-.38c-4.67-1.24-8.83-3.92-11.9-7.64h0l-16.2-9.88 5.28-14.9L68.31 182.61zM92.97 185.32c0 0-4.78-1.92-10.15-.91M102.72 198.44c0 0-4.62-6.38-13.73-7.83M100.32 206.54c0 0-4.26-9.36-15.12-11.28M94.91 209.31c0 0-1.95-5.87-11.69-8.53"></path></g><path d="M60.14,133.59l-22.06,45.59c-2.64,5.27-12.02,7.26-17.29,4.62c-5.27-2.64-7.41-9.05-4.76-14.33l20.81-43.06
		c5.16-9.43,9.39-10.71,16.74-9.01C53.57,117.4,65.13,121.05,60.14,133.59z"></path><path d="M69.42,179.44l-36.58-15.25c-6.49-2.8-14.02,0.2-16.82,6.69c-2.8,6.49,0.2,14.02,6.69,16.82l35.56,17.03
		C58.28,204.73,67.7,191.94,69.42,179.44"></path><line x1="43.25" x2="52.31" y1="168.51" y2="149.77" fill="none" stroke="#fff" stroke-linecap="round" stroke-miterlimit="10" stroke-width=".316"></line><path fill="none" stroke="#fff" stroke-linecap="round" stroke-miterlimit="10" stroke-width=".316" d="M39.54,167.12l29.45,12.28c0,0-0.11,11.39-11.15,25.29l-14.54-6.96"></path><g><path fill="#fff" stroke="#000" stroke-miterlimit="10" stroke-width=".316" d="M101.65,213.89h68.83c0.72,0,1.35-0.46,1.58-1.14l16.97-50.74c0.36-1.08-0.44-2.19-1.58-2.19h-66.52
			c-0.72,0-1.35,0.46-1.58,1.14L101.65,213.89z"></path><path fill="#fff" stroke="#000" stroke-miterlimit="10" stroke-width=".316" d="M67.94,209.89h35.05l-1.58,4H65.34v-1.41C65.34,211.05,66.5,209.89,67.94,209.89z"></path></g><g><path d="M275.32,154.72H136.19c-5.41,0-9.79-4.38-9.79-9.79V20.9c0-5.41,4.38-9.79,9.79-9.79h139.13c5.41,0,9.79,4.38,9.79,9.79
			v124.02C285.11,150.33,280.73,154.72,275.32,154.72z"></path><path fill="#fff" d="M136.19,150.29c-2.96,0-5.37-2.41-5.37-5.37V20.9c0-2.96,2.41-5.37,5.37-5.37h139.13
			c2.96,0,5.37,2.41,5.37,5.37v124.02c0,2.96-2.41,5.37-5.37,5.37H136.19z"></path><path fill="#fff" stroke="#000" stroke-miterlimit="10" stroke-width=".316" d="M273.07,74.82H139.7c-1.15,0-2.08-0.93-2.08-2.08V24.49c0-1.15,0.93-2.08,2.08-2.08h133.37
			c1.15,0,2.08,0.93,2.08,2.08v48.25C275.15,73.89,274.22,74.82,273.07,74.82z"></path><g><circle cx="170.71" cy="48.61" r="16.59" fill="#fff" stroke="#000" stroke-miterlimit="10" stroke-width=".316"></circle><path d="M191.16,48.61h-20.45V28.16C182,28.16,191.16,37.32,191.16,48.61z"></path><path fill="#ff7f6e" d="M170.71,48.61v20.45c-11.3,0-20.45-9.16-20.45-20.45H170.71z"></path></g><g><rect width="9.6" height="6.74" x="196.78" y="134.85"></rect><rect width="9.6" height="15.38" x="212.97" y="126.2"></rect><rect width="9.6" height="32.71" x="229.15" y="108.87"></rect><rect width="9.6" height="15.38" x="245.33" y="126.2"></rect><rect width="9.6" height="23.23" x="261.52" y="118.35"></rect></g><g><path fill="none" stroke="#000" stroke-miterlimit="10" stroke-width=".316" d="M207.11,118.6H142.8c-2.86,0-5.18-2.32-5.18-5.18V88.49c0-2.86,2.32-5.18,5.18-5.18h64.31
				c2.86,0,5.18,2.32,5.18,5.18v24.92C212.3,116.28,209.98,118.6,207.11,118.6z"></path><path fill="none" stroke="#000" stroke-miterlimit="10" stroke-width=".316" d="M204.03,91.32c-6.6-0.65-8.54,7.19-8.54,7.19s-1.06,5.89-7.6,6.48c-6.54,0.59-13.02-4.77-13.02-4.77
				c-7.6-3.71-10.07,0.94-12.55,2.71s-7.51,2.39-10.6-0.71c-3.09-3.09-5.83-2.47-5.83-2.47v14.65h58.14V91.32z"></path><path fill="none" stroke="#000" stroke-miterlimit="10" stroke-width=".947" d="M145.89,99.75c0,0,2.74-0.62,5.83,2.47c3.09,3.09,8.13,2.47,10.6,0.71s4.95-6.42,12.55-2.71
				c0,0,6.48,5.36,13.02,4.77c6.54-0.59,7.6-6.48,7.6-6.48s1.94-7.83,8.54-7.19"></path></g><g><rect width="8.63" height="8.63" x="215.43" y="29.56" fill="#ff7f6e"></rect><rect width="8.63" height="8.63" x="215.43" y="44.3"></rect><rect width="8.63" height="8.63" x="215.43" y="59.03" fill="#fff" stroke="#000" stroke-miterlimit="10" stroke-width=".316"></rect><g><line x1="229.58" x2="251.16" y1="31.16" y2="31.16" fill="none" stroke="#000" stroke-miterlimit="10" stroke-width=".316"></line><line x1="229.58" x2="264.19" y1="36.59" y2="36.59" fill="none" stroke="#000" stroke-miterlimit="10" stroke-width=".316"></line></g><g><line x1="229.58" x2="251.16" y1="45.9" y2="45.9" fill="none" stroke="#000" stroke-miterlimit="10" stroke-width=".316"></line><line x1="229.58" x2="264.19" y1="51.33" y2="51.33" fill="none" stroke="#000" stroke-miterlimit="10" stroke-width=".316"></line></g><g><line x1="229.58" x2="251.16" y1="60.63" y2="60.63" fill="none" stroke="#000" stroke-miterlimit="10" stroke-width=".316"></line><line x1="229.58" x2="264.19" y1="66.07" y2="66.07" fill="none" stroke="#000" stroke-miterlimit="10" stroke-width=".316"></line></g></g></g></g></svg>