<svg xmlns="http://www.w3.org/2000/svg"  viewBox="0 0 80 80" width="16px" height="16px"><path fill="#bae0bd" d="M40,51.5c-10.752,0-19.5-8.748-19.5-19.5S29.248,12.5,40,12.5S59.5,21.248,59.5,32 S50.752,51.5,40,51.5z"/><path fill="#5e9c76" d="M40,13c10.477,0,19,8.523,19,19s-8.523,19-19,19s-19-8.523-19-19C21,21.523,29.523,13,40,13 M40,12 c-11.046,0-20,8.954-20,20c0,11.046,8.954,20,20,20c11.046,0,20-8.954,20-20S51.046,12,40,12L40,12z"/><path fill="#dbf2ff" d="M20.5 32.5H59.5V47.5H20.5z"/><path fill="#7496c4" d="M59,33v14H21V33H59 M60,32H20v16h40V32L60,32z"/><path fill="#dbf2ff" d="M2.5 46.5H77.5V77.5H2.5z"/><path fill="#7496c4" d="M77,47v30H3V47H77 M78,46H2v32h76V46L78,46z"/><path fill="#a3c7db" d="M26.5,46.5V40c0-0.827,0.673-1.5,1.5-1.5s1.5,0.673,1.5,1.5v6.5H26.5z"/><path fill="#7496c4" d="M28,39c0.551,0,1,0.449,1,1v6h-2v-6C27,39.449,27.449,39,28,39 M28,38c-1.105,0-2,0.895-2,2v7h4v-7 C30,38.895,29.105,38,28,38L28,38z"/><path fill="#a3c7db" d="M34.5,46.5V40c0-0.827,0.673-1.5,1.5-1.5s1.5,0.673,1.5,1.5v6.5H34.5z"/><path fill="#7496c4" d="M36,39c0.551,0,1,0.449,1,1v6h-2v-6C35,39.449,35.449,39,36,39 M36,38c-1.105,0-2,0.895-2,2v7h4v-7 C38,38.895,37.105,38,36,38L36,38z"/><path fill="#a3c7db" d="M42.5,46.5V40c0-0.827,0.673-1.5,1.5-1.5s1.5,0.673,1.5,1.5v6.5H42.5z"/><path fill="#7496c4" d="M44,39c0.551,0,1,0.449,1,1v6h-2v-6C43,39.449,43.449,39,44,39 M44,38c-1.105,0-2,0.895-2,2v7h4v-7 C46,38.895,45.105,38,44,38L44,38z"/><path fill="#a3c7db" d="M50.5,46.5V40c0-0.827,0.673-1.5,1.5-1.5s1.5,0.673,1.5,1.5v6.5H50.5z"/><path fill="#7496c4" d="M52,39c0.551,0,1,0.449,1,1v6h-2v-6C51,39.449,51.449,39,52,39 M52,38c-1.105,0-2,0.895-2,2v7h4v-7 C54,38.895,53.105,38,52,38L52,38z"/><path fill="#a3c7db" d="M66.643 68.5H69.643V77.5H66.643z"/><path fill="#7496c4" d="M69.143,69v8h-2v-8H69.143 M70.143,68h-4v10h4V68L70.143,68z"/><path fill="#a3c7db" d="M66.643 52.5H69.643V61.5H66.643z"/><path fill="#7496c4" d="M69.143,53v8h-2v-8H69.143 M70.143,52h-4v10h4V52L70.143,52z"/><path fill="#a3c7db" d="M58.643 68.5H61.643V77.5H58.643z"/><path fill="#7496c4" d="M61.143,69v8h-2v-8H61.143 M62.143,68h-4v10h4V68L62.143,68z"/><path fill="#a3c7db" d="M58.643 52.5H61.643V61.5H58.643z"/><path fill="#7496c4" d="M61.143,53v8h-2v-8H61.143 M62.143,52h-4v10h4V52L62.143,52z"/><path fill="#a3c7db" d="M50.643 68.5H53.643V77.5H50.643z"/><path fill="#7496c4" d="M53.143,69v8h-2v-8H53.143 M54.143,68h-4v10h4V68L54.143,68z"/><g><path fill="#a3c7db" d="M50.643 52.5H53.643V61.5H50.643z"/><path fill="#7496c4" d="M53.143,53v8h-2v-8H53.143 M54.143,52h-4v10h4V52L54.143,52z"/></g><g><path fill="#a3c7db" d="M42.643 68.5H45.643V77.5H42.643z"/><path fill="#7496c4" d="M45.143,69v8h-2v-8H45.143 M46.143,68h-4v10h4V68L46.143,68z"/></g><g><path fill="#a3c7db" d="M42.643 52.5H45.643V61.5H42.643z"/><path fill="#7496c4" d="M45.143,53v8h-2v-8H45.143 M46.143,52h-4v10h4V52L46.143,52z"/></g><g><path fill="#a3c7db" d="M34.643 68.5H37.643V77.5H34.643z"/><path fill="#7496c4" d="M37.143,69v8h-2v-8H37.143 M38.143,68h-4v10h4V68L38.143,68z"/></g><g><path fill="#a3c7db" d="M34.643 52.5H37.643V61.5H34.643z"/><path fill="#7496c4" d="M37.143,53v8h-2v-8H37.143 M38.143,52h-4v10h4V52L38.143,52z"/></g><g><path fill="#a3c7db" d="M26.643 68.5H29.643V77.5H26.643z"/><path fill="#7496c4" d="M29.143,69v8h-2v-8H29.143 M30.143,68h-4v10h4V68L30.143,68z"/></g><g><path fill="#a3c7db" d="M26.643 52.5H29.643V61.5H26.643z"/><path fill="#7496c4" d="M29.143,53v8h-2v-8H29.143 M30.143,52h-4v10h4V52L30.143,52z"/></g><g><path fill="#a3c7db" d="M18.643 68.5H21.643V77.5H18.643z"/><path fill="#7496c4" d="M21.143,69v8h-2v-8H21.143 M22.143,68h-4v10h4V68L22.143,68z"/></g><g><path fill="#a3c7db" d="M18.643 52.5H21.643V61.5H18.643z"/><path fill="#7496c4" d="M21.143,53v8h-2v-8H21.143 M22.143,52h-4v10h4V52L22.143,52z"/></g><g><path fill="#a3c7db" d="M10.643 68.5H13.643V77.5H10.643z"/><path fill="#7496c4" d="M13.143,69v8h-2v-8H13.143 M14.143,68h-4v10h4V68L14.143,68z"/></g><g><path fill="#a3c7db" d="M10.643 52.5H13.643V61.5H10.643z"/><path fill="#7496c4" d="M13.143,53v8h-2v-8H13.143 M14.143,52h-4v10h4V52L14.143,52z"/></g><g><path fill="#8bb7f0" d="M51.202,11.314c-1.193,0-2.386-0.468-3.768-1.011C45.649,9.603,43.451,8.74,40.5,8.65V2.508 c2.699,0.086,4.723,0.855,6.521,1.539c1.507,0.573,2.809,1.067,4.21,1.067c1.554,0,2.99-0.613,4.555-1.964v5.785 C54.104,10.579,52.684,11.314,51.202,11.314z"/><path fill="#4e7ab5" d="M41,3.033c2.365,0.159,4.201,0.856,5.843,1.48c1.488,0.566,2.894,1.1,4.388,1.1 c1.379,0,2.699-0.462,4.055-1.436v4.543c-1.94,1.847-3.197,2.092-4.084,2.092c-1.099,0-2.251-0.452-3.585-0.976 C45.893,9.161,43.792,8.336,41,8.172V3.033 M56.286,2c-1.961,1.961-3.533,2.614-5.055,2.614C48.186,4.614,45.342,2,40,2v7.143 c5.429,0,8.186,2.671,11.202,2.671c1.508,0,3.081-0.668,5.084-2.671V2L56.286,2z"/></g></svg>