<svg xmlns="http://www.w3.org/2000/svg"  viewBox="0 0 48 48" width="48px" height="48px"><path fill="#c5cae9" d="M8,25c0,11.934,16,18,16,18s16-5.974,16-18c0-4.944,0-17,0-17c-3.947,0-16-3-16-3S11.942,8,8,8C8,8,8,20.056,8,25z"/><path fill="#9fa8da" d="M40,25c0,11.934-16,18-16,18V5c0,0,12.058,3,16,3C40,8,40,20.056,40,25z"/><path fill="#f44336" d="M36,25c0,7.221-8.553,12.002-12.002,13.636C20.561,37.009,12,32.228,12,25V11.607c4.19-0.64,9.552-1.894,12-2.488c2.448,0.594,7.811,1.849,12,2.488V25z"/><path fill="#e53935" d="M36,25.031c0,7.221-8.553,12.002-12.002,13.636L24,9.15c2.448,0.594,7.811,1.849,12,2.488V25.031z"/><path fill="#9fa8da" d="M10 10A1 1 0 1 0 10 12 1 1 0 1 0 10 10zM17 8A1 1 0 1 0 17 10 1 1 0 1 0 17 8zM24 6A1 1 0 1 0 24 8 1 1 0 1 0 24 6zM10 16A1 1 0 1 0 10 18 1 1 0 1 0 10 16zM10 22A1 1 0 1 0 10 24 1 1 0 1 0 10 22zM11 28A1 1 0 1 0 11 30 1 1 0 1 0 11 28zM14 33A1 1 0 1 0 14 35 1 1 0 1 0 14 33zM19 37A1 1 0 1 0 19 39 1 1 0 1 0 19 37z"/><path fill="#7986cb" d="M38 10A1 1 0 1 0 38 12 1 1 0 1 0 38 10zM31 8A1 1 0 1 0 31 10 1 1 0 1 0 31 8zM38 16A1 1 0 1 0 38 18 1 1 0 1 0 38 16zM38 22A1 1 0 1 0 38 24 1 1 0 1 0 38 22zM37 28A1 1 0 1 0 37 30 1 1 0 1 0 37 28zM34 33A1 1 0 1 0 34 35 1 1 0 1 0 34 33zM29 37A1 1 0 1 0 29 39 1 1 0 1 0 29 37z"/><path fill="#ffcdd2" d="M23.999 25.841L36 17.68 36 13.68 23.999 21.841z"/><path fill="#fff" d="M23.999 21.841l-10.956 7.45c.484.987 1.099 1.914 1.817 2.764l9.138-6.214L23.999 21.841zM20 17L18 19.5 16 17 18 14.5z"/><path fill="#ffcdd2" d="M32 29L30 31.5 28 29 30 26.5z"/></svg>