<svg xmlns="http://www.w3.org/2000/svg" fill-rule="evenodd" stroke-linejoin="round" stroke-miterlimit="2" clip-rule="evenodd" viewBox="0 0 6000 6000" id="interest-mortgage-calculator"><path fill="#eee" d="M1331.51 792.514c0-4.514-2.49-8.173-5.56-8.173h-11.19c-3.07 0-5.56 3.659-5.56 8.173v49.827c0 4.514 2.49 8.172 5.56 8.172h11.19c3.07 0 5.56-3.658 5.56-8.172v-49.827Z" transform="matrix(9.03045 0 0 5.8786 -8143.346 -346.38)"></path><path fill="#eee" d="M1331.51 790.406c0-1.608-.59-3.151-1.63-4.288-1.04-1.138-2.45-1.777-3.93-1.777h-11.19c-1.47 0-2.89.639-3.93 1.777-1.04 1.137-1.63 2.68-1.63 4.288v54.042c0 1.609.59 3.152 1.63 4.289 1.04 1.137 2.46 1.776 3.93 1.776h11.19c1.48 0 2.89-.639 3.93-1.776s1.63-2.68 1.63-4.289v-54.042Z" transform="matrix(9.03045 0 0 7.92138 -7877.405 -2083.788)"></path><path fill="#eee" d="M1331.51 787.705c0-.892-.59-1.747-1.63-2.378s-2.45-.986-3.93-.986h-11.19c-1.47 0-2.89.355-3.93.986s-1.63 1.486-1.63 2.378v59.444c0 .893.59 1.748 1.63 2.379s2.46.985 3.93.985h11.19c1.48 0 2.89-.354 3.93-.985s1.63-1.486 1.63-2.379v-59.444Z" transform="matrix(9.03045 0 0 14.2816 -7611.452 -7493.26)"></path><path fill="#eee" d="M1331.51 789.651c0-1.408-.59-2.759-1.63-3.754a5.677 5.677 0 0 0-3.93-1.556h-11.19c-1.47 0-2.89.56-3.93 1.556-1.04.995-1.63 2.346-1.63 3.754v55.552c0 1.409.59 2.759 1.63 3.755a5.694 5.694 0 0 0 3.93 1.555h11.19c1.48 0 2.89-.559 3.93-1.555 1.04-.996 1.63-2.346 1.63-3.755v-55.552Z" transform="matrix(9.03045 0 0 9.04763 -7345.499 -3041.69)"></path><path fill="#eee" d="M1331.51 788.878c0-1.204-.59-2.357-1.63-3.208s-2.45-1.329-3.93-1.329h-11.19c-1.47 0-2.89.478-3.93 1.329s-1.63 2.004-1.63 3.208v57.099c0 1.203.59 2.357 1.63 3.208s2.46 1.328 3.93 1.328h11.19c1.48 0 2.89-.477 3.93-1.328 1.04-.851 1.63-2.005 1.63-3.208v-57.099Z" transform="matrix(9.03045 0 0 10.591 -7079.546 -4354.34)"></path><path fill="#eee" d="M1399.79 1065.78c-3.38-9.87-35.61-23.53-43.85-28.34-37.58-21.97-77.14-56.152-70.05-104.588 10.63-72.572 104.23-79.329 149.55-120.747 23.99-21.922 23.3-50.463 29.1-80.034 6.02-30.673 19.66-58.72 48.34-73.816 12.61-6.639 26.97-10.504 41.22-10.959 52.39-1.673 91.63 39.963 107.81 86.06 9.27 26.403 14.58 61.256 37.02 80.547 25.51 21.932 76.44-4.58 91.04 31.915 6.2 15.512-1.13 34.333-11.37 46.332-20.8 24.364-52.09 33.703-77.49 51.918-37.08 26.6-47.95 79.342-39.75 121.712h-261.57Z" transform="translate(-9218.85 -3574.04) scale(7.71973)"></path><circle cx="1854.17" cy="699.59" r="61.921" fill="#eee" transform="translate(-14037.822 -5080.105) scale(10.12952)"></circle><g transform="matrix(-14.65304 5.30123 9.49537 14.96422 19661.868 -19629.743)"><path fill="#4b7686" d="m1797.83 845.251-12.26-10.001s-52.66 41.597-52.66 74.922c0 35.83 29.09 64.92 64.92 64.92 35.85 0 64.92-29.066 64.92-64.92l-12.29-10.001-13.95 10.001c0 21.363-17.32 38.681-38.68 38.681-21.35 0-38.68-17.333-38.68-38.681 0-6.511 1.61-12.647 4.45-18.03 6.48-12.281 19.38-20.652 34.23-20.652v-26.239Z"></path><clipPath id="a"><path d="m1797.83 845.251-12.26-10.001s-52.66 41.597-52.66 74.922c0 35.83 29.09 64.92 64.92 64.92 35.85 0 64.92-29.066 64.92-64.92l-12.29-10.001-13.95 10.001c0 21.363-17.32 38.681-38.68 38.681-21.35 0-38.68-17.333-38.68-38.681 0-6.511 1.61-12.647 4.45-18.03 6.48-12.281 19.38-20.652 34.23-20.652v-26.239Z"></path></clipPath><g clip-path="url(#a)"><path fill="#85b1c2" d="m885.616 981.629 18.561 71.871 14.98 16.48 79.083-74.055 6.46-52.121-42.984-21.736-76.1 59.561Z" transform="matrix(.74857 -.11687 .3022 .7001 757.748 289.625)"></path></g></g><g transform="matrix(-14.65304 5.30123 9.49537 14.96422 19747.04 -19844.566)"><path fill="#6993a4" d="M1797.83 845.251c-35.85 0-64.92 29.066-64.92 64.921 0 35.83 29.09 64.92 64.92 64.92 35.85 0 64.92-29.066 64.92-64.92h-26.24c0 21.363-17.32 38.681-38.68 38.681-21.35 0-38.68-17.333-38.68-38.681 0-21.363 17.32-38.682 38.68-38.682v-26.239Z"></path><clipPath id="b"><path d="M1797.83 845.251c-35.85 0-64.92 29.066-64.92 64.921 0 35.83 29.09 64.92 64.92 64.92 35.85 0 64.92-29.066 64.92-64.92h-26.24c0 21.363-17.32 38.681-38.68 38.681-21.35 0-38.68-17.333-38.68-38.681 0-21.363 17.32-38.682 38.68-38.682v-26.239Z"></path></clipPath><g clip-path="url(#b)"><path fill="#a6d2e4" d="m846.865 1069.98 61.966-17.17 81.435-63.757 14.434-45.249-83.743-52.282-74.092 178.458Z" transform="matrix(.74857 -.11687 .3022 .7001 770.041 299.625)"></path></g></g><path fill="#001320" d="M1860.47 893.107c-6.56-24.083-26.35-42.271-50.9-46.786l-22.12 43.532 8.53 7.549c3.98.733 10.95 6.094 12.01 10.001l52.48-14.296Z" transform="matrix(-14.65304 5.30123 9.49537 14.96422 19463.542 -19691.06)"></path><path fill="#023341" d="M1860.47 893.107c-6.56-24.083-26.35-42.271-50.9-46.786l-9.83 53.491c3.98.733 7.19 3.684 8.25 7.591l52.48-14.296Z" transform="matrix(-14.65304 5.30123 9.49537 14.96422 19548.716 -19905.876)"></path><g transform="rotate(-95.928 4958.548 7764.414) scale(7.17056)"><path fill="#fad8ba" d="M1447.01 767.081c-23.79 3.639-142.6 39.683-147.65 72.765-3.72 24.393 60.24 67.821 60.24 67.821 3.27.114 21.42 17.981 26.67 19.541 9.21 2.737 18.92-4.804 20.52-11.372 1.12-4.641-11.45-10.964-9.19-11.158 11.96-1.025 13.57-1.912 14.95-5.004 1.54-3.433-31.38-8.968-32.85-12.337l-3.38-35.958s46.93-4.812 65.78-33.363c9.96-15.08 21.77-53.513 4.91-50.935Z"></path><clipPath id="c"><path d="M1447.01 767.081c-23.79 3.639-142.6 39.683-147.65 72.765-3.72 24.393 60.24 67.821 60.24 67.821 3.27.114 21.42 17.981 26.67 19.541 9.21 2.737 18.92-4.804 20.52-11.372 1.12-4.641-11.45-10.964-9.19-11.158 11.96-1.025 13.57-1.912 14.95-5.004 1.54-3.433-31.38-8.968-32.85-12.337l-3.38-35.958s46.93-4.812 65.78-33.363c9.96-15.08 21.77-53.513 4.91-50.935Z"></path></clipPath><g clip-path="url(#c)"><path fill="#f25c05" d="M1371.35 901.324c10.62 7.577 21.51 13.361 33.67 18.241 12.02 4.82 27.78 10.506 40.51 4.75 9.66-4.369 12.79-15.373 13.88-25.103 2.46-21.943-5.06-45.849-21.05-61.365-3.92-3.809-8.46-7.064-13.46-9.308a40.1 40.1 0 0 0-13.21-3.366 38.327 38.327 0 0 0-10.76.661c-22.45 4.668-30.68 54.917-29.58 75.49Z" transform="rotate(60.172 1596.928 787.867) scale(1.07659)"></path></g></g><g transform="translate(-8489.22 -2935.536) scale(7.17056)"><path fill="#f25c05" d="M1511.03 768c-8.15-7.432-85.16-18.886-99.1 6.037-13.95 24.922 15.42 143.498 15.42 143.498l114.81-55.459s-15.19-79.538-31.13-94.076Z"></path><clipPath id="d"><path d="M1511.03 768c-8.15-7.432-85.16-18.886-99.1 6.037-13.95 24.922 15.42 143.498 15.42 143.498l114.81-55.459s-15.19-79.538-31.13-94.076Z"></path></clipPath><g clip-path="url(#d)"><path fill="#d23f00" d="M1439.16 894.454c5 .858 36.89-34.47 36.89-34.47s5.95 11.467 4.23 27.742c-.38 3.597 1.09 7.999 5.08 9.057 5.46 1.452 17.07-10.002 24.66-12.298 12.25-3.702 22.2-3.693 21.84 4.291-.42 9.092-16.51 19.123-23.08 24.256-13.46 10.505-29.86 18.379-45.13 25.908-5.17 2.55-12.71 6.969-18.71 4.808-9.12-3.287-9.57-18.929-9.34-26.636.22-7.662 1.67-15.251 3.56-22.658Z" transform="translate(-311.154 -210.534) scale(1.19725)"></path></g></g><g transform="matrix(-3.5211 -3.20799 -4.8292 5.30055 14392.05 4030.053)"><path fill="#f29f05" d="M1733.45 1026.09c-34.11-8.11-100.29 19.31-122.1 24.11-16.21 3.58-3.83 16.93-3.83 16.93 40.26 7.76 104.5 6.84 125.49 0 13.01-4.24 15.73-37.41.44-41.04Z"></path><clipPath id="e"><path d="M1733.45 1026.09c-34.11-8.11-100.29 19.31-122.1 24.11-16.21 3.58-3.83 16.93-3.83 16.93 40.26 7.76 104.5 6.84 125.49 0 13.01-4.24 15.73-37.41.44-41.04Z"></path></clipPath><g clip-path="url(#e)"><path fill="#b16800" d="M1621.93 1039.15c2.89 11.64 32.07 31.12 95.26 6.48 10.04-3.92 16.12-11.33 22.92-19.76 4.62-5.75 3.91 17.21 2.09 21.98-4.93 12.86-17.5 20.53-29.62 25.63-25.95 10.93-58.51 12.62-85.85 6.58-12.05-2.67-25.72-7.1-34.14-16.69-11.84-13.5-4.2-30.57 8.03-40.65 20.87-17.2-4.96 16.23 21.31 16.43Z" transform="matrix(1.02231 0 0 1 -31.443 4.037)"></path></g></g><g transform="matrix(-4.42806 -2.4846 -3.50881 6.25342 14196.2 1850.364)"><path fill="#f29f05" d="M1733.45 1026.09c-34.11-8.11-100.29 19.31-122.1 24.11-16.21 3.58-3.83 16.93-3.83 16.93 42.14 6.07 104.5 6.84 125.49 0 13.01-4.24 15.73-37.41.44-41.04Z"></path><clipPath id="f"><path d="M1733.45 1026.09c-34.11-8.11-100.29 19.31-122.1 24.11-16.21 3.58-3.83 16.93-3.83 16.93 42.14 6.07 104.5 6.84 125.49 0 13.01-4.24 15.73-37.41.44-41.04Z"></path></clipPath><g clip-path="url(#f)"><path fill="#b16800" d="M1621.93 1039.15c2.89 11.64 32.07 31.12 95.26 6.48 10.04-3.92 16.12-11.33 22.92-19.76 4.62-5.75 3.91 17.21 2.09 21.98-4.93 12.86-17.5 20.53-29.62 25.63-25.95 10.93-58.51 12.62-85.85 6.58-12.05-2.67-25.72-7.1-34.14-16.69-11.84-13.5-4.2-30.57 8.03-40.65 20.87-17.2-4.96 16.23 21.31 16.43Z" transform="matrix(1.02231 0 0 1 -31.443 4.037)"></path></g></g><path fill="#03222f" d="M1715.67 955.7c78.35 2.457 64.35-51.126 47.14-69.66-17.21-18.534-115.99-55.687-150.4-41.544-34.41 14.143-56.06 126.403-56.06 126.403 18.81 11.903 35.51 26.297 77.83 0l25.31-31.222s32.77 15.289 56.18 16.023Z" transform="matrix(-7.17056 0 0 7.17056 14799.342 -2946.7)"></path><g transform="matrix(-7.17056 0 0 7.17056 14482.139 -2946.7)"><path fill="#023341" d="M1710.19 957.405c78.35 2.457 68.92-52.547 52.62-71.365-16.3-18.818-114.31-56.78-150.4-41.544-36.09 15.235-66.15 132.956-66.15 132.956 18.8 11.902 48.35 32.388 90.68 6.088l14.46-32.589s35.39 5.72 58.79 6.454Z"></path><clipPath id="g"><path d="M1710.19 957.405c78.35 2.457 68.92-52.547 52.62-71.365-16.3-18.818-114.31-56.78-150.4-41.544-36.09 15.235-66.15 132.956-66.15 132.956 18.8 11.902 48.35 32.388 90.68 6.088l14.46-32.589s35.39 5.72 58.79 6.454Z"></path></clipPath><g clip-path="url(#g)"><path fill="#03222f" d="M1517.76 879.637c-14.08 9.203-26.74 23.03-33.69 38.393-3.99 8.813-5.07 18.759 6.04 22.356 2.4.775 4.97 1.162 7.47 1.295 6.67.353 13.49-1.247 19.99-2.543 7.28-1.453 14.95-2.65 22.06-4.85 3.59-1.114 6.33-3.345 9.15-5.739.57-.484 2.33-2.54 3.23-2.131 1.34.609 1.45 5.331 1.87 6.566 1.39 4.193 4.38 7.875 7.76 10.639 9.88 8.06 23.13 9.719 33.18 17.233 12.1 9.052 19.5 20.902 32.98 29.214 29.94 18.47 44.28 9.906 48.57 9.93 9.98.07 13.36-5.863 9.43.67-3.94 6.54-12.06 10.33-19.08 12.43-16.84 5.01-36.1 2.28-52.4-3.34-11.6-4-23.08-8.24-35.05-11.085-16.02-3.81-32.45-5.71-48.84-7.042-26-2.113-55.3-.822-79.54-11.824-5.2-2.36-10.09-5.511-14.29-9.386-2.76-2.542-5.24-5.445-7.17-8.665-13.48-22.442 58.08-76.698 88.33-82.121Z" transform="matrix(-1.19725 0 0 1.19725 3514.72 -208.978)"></path></g></g><path fill="#6993a4" d="M1614.6 868.439c0-4.751-4.8-8.603-10.71-8.603h-80.61c-5.91 0-10.71 3.852-10.71 8.603v39.095c0 4.751 4.8 8.602 10.71 8.602h80.61c5.91 0 10.71-3.851 10.71-8.602v-39.095Z" transform="matrix(8.07414 -1.36048 -2.50406 9.6123 -7549.917 -3371.682)"></path><path fill="#a6d2e4" d="M1614.6 868.439c0-4.751-4.8-8.603-10.71-8.603h-80.61c-5.91 0-10.71 3.852-10.71 8.603v39.095c0 4.751 4.8 8.602 10.71 8.602h80.61c5.91 0 10.71-3.851 10.71-8.602v-39.095Z" transform="matrix(8.07414 -1.36048 -2.50406 9.6123 -7530.092 -3351.181)"></path><g transform="rotate(-60.172 3519.418 11610.033) scale(7.17056)"><path fill="#fad8ba" d="M1447.01 767.081c-23.79 3.639-142.6 39.683-147.65 72.765-3.72 24.393 94.8 65.53 94.8 65.53 3.27.113 21.42 17.98 26.67 19.54 9.21 2.738 18.92-4.804 20.52-11.371 1.12-4.641-11.45-10.965-9.19-11.159 11.96-1.025 13.57-1.912 14.96-5.003 1.53-3.434-31.39-8.969-32.86-12.337l-37.94-33.667s46.93-4.812 65.78-33.363c9.96-15.08 21.77-53.513 4.91-50.935Z"></path><clipPath id="h"><path d="M1447.01 767.081c-23.79 3.639-142.6 39.683-147.65 72.765-3.72 24.393 94.8 65.53 94.8 65.53 3.27.113 21.42 17.98 26.67 19.54 9.21 2.738 18.92-4.804 20.52-11.371 1.12-4.641-11.45-10.965-9.19-11.159 11.96-1.025 13.57-1.912 14.96-5.003 1.53-3.434-31.39-8.969-32.86-12.337l-37.94-33.667s46.93-4.812 65.78-33.363c9.96-15.08 21.77-53.513 4.91-50.935Z"></path></clipPath><g clip-path="url(#h)"><path fill="#d7b699" d="M385.671 3249.76c-.318 3.39-20.18-2.29-27.869 25.83-3.156 11.55-.8 24.91 4.848 29.84 7.621 6.66 20.289 1.33 28.283-1.71 15.28-5.8 31.03-13.37 43.839-23.65 3.287-2.64 6.167-5.71 8.74-9.04 1.18-1.53 2.393-4.43 4.072-5.44 1.571-.94 3.306 1.36 4.602 2.02 2.343 1.18 4.206 1.19 6.75.58 6.217-1.47 12.062-4.17 15.971-9.38 1.641-2.18 2.632-4.73 4.207-6.94.601-.85 1.887-1.79 2.352-.29.933 3.03-.593 7.24-1.558 10.06-3.505 10.23-11.615 18.74-19.515 25.79-19.858 17.71-45.274 30.86-70.578 38.73-12.548 3.91-27.095 6.62-40.011 2.78-24.265-7.2-25.772-38.69-22.975-59.43.65-4.83 1.64-9.6 2.973-14.28 1.454-5.11 3.339-10.1 5.761-14.83 5.659-11.05 16.066-22.14 29.624-20.66 3.217.36 17.582 28.63 20.484 30.02Z" transform="rotate(60.172 3444.06 3104.936) scale(1.15635)"></path><path fill="#f25c05" d="M1371.35 901.324c10.62 7.577 21.51 13.361 33.67 18.241 12.02 4.82 27.78 10.506 40.51 4.75 9.66-4.369 12.79-15.373 13.88-25.103 2.46-21.943-5.06-45.849-21.05-61.365-3.92-3.809-8.46-7.064-13.46-9.308a40.1 40.1 0 0 0-13.21-3.366 38.327 38.327 0 0 0-10.76.661c-22.45 4.668-30.68 54.917-29.58 75.49Z" transform="rotate(60.172 1596.928 787.867) scale(1.07659)"></path></g></g><g transform="translate(-10397.239 -3940.69) scale(8.43141)"><path fill="#fad8ba" d="m1478.83 745.675-16.63 1.037c1.22 6.507.52 12.515-1.91 18.071 14 23.006 22.93 23.883 23.55-.044-7.27-4.469-6.44-13.156-5.01-19.064Z"></path><clipPath id="i"><path d="m1478.83 745.675-16.63 1.037c1.22 6.507.52 12.515-1.91 18.071 14 23.006 22.93 23.883 23.55-.044-7.27-4.469-6.44-13.156-5.01-19.064Z"></path></clipPath><g clip-path="url(#i)"><path fill="#d7b699" d="M1496.99 807.584c-2.16 1.614-4.67 2.889-7.27 3.621-1.95.548-4.03.967-6.05 1.036-1.87.064-3.9-.142-5.51-1.168-3.3-2.099-3.31-6.805-1.71-9.972 3.37-6.664 12.67-9.341 18.59-4.476 1.83 1.504 1.16 8.741 1.95 10.959Z" transform="rotate(-23.57 1126.885 1606.997) scale(1.19725)"></path></g></g><path fill="#fad8ba" d="M1470.8 716.048c9.48 0 17.17 7.695 17.17 17.173 0 9.479-1.24 20.426-10.72 20.426s-23.62-10.947-23.62-20.426c0-9.478 7.69-17.173 17.17-17.173Z" transform="matrix(7.26229 0 0 8.43141 -8692.387 -3912.376)"></path><path fill="#001320" d="M1438.07 798.798c.55-.722 3.02.939 4.33 1.128 4.81.691 10.15-.314 13.87-3.604 1.68-1.489 1.95-3.978 1.73-6.303-.52-5.547-6.52-9.641-11.86-9.213-6.08.487-9.85 5.652-14.02 9.405-2.23 2.005-4.87 3.837-6.1 6.676-2 4.622 1.65 8.323 4.02 11.863.81 1.209 1.88 3.489 3.56 3.611 1.19.086 1.11-1.196 1.02-2.036-.16-1.386-1.06-5.266 1.1-5.71 1.57-.324 2.25 2.124 2.64 3.168.17.45.45 1.398 1.1 1.283.53-.094.73-.805.77-1.256.1-1.258-.48-2.503-1.1-3.558-.51-.846-1.6-4.733-1.06-5.454Z" transform="translate(-11109.7 -5021.114) scale(9.07717)"></path><path fill="#6993a4" d="M1883.31 723.539c0-4.856-1.77-9.513-4.93-12.946-3.14-3.434-7.42-5.363-11.87-5.363h-162.6c-4.46 0-8.73 1.929-11.88 5.363-3.15 3.433-4.92 8.09-4.92 12.946v228.917c0 4.856 1.77 9.513 4.92 12.946 3.15 3.434 7.42 5.363 11.88 5.363h162.6c4.45 0 8.73-1.929 11.87-5.363 3.16-3.433 4.93-8.09 4.93-12.946V723.539Z" transform="matrix(7.71973 0 0 7.08364 -9368.515 -3338.816)"></path><path fill="#fff" d="M1784.3 742.023c-23.93 0-43.34 19.402-43.34 43.336 0 23.917 19.42 43.335 43.34 43.335 23.93 0 43.33-19.402 43.33-43.335h-21.66c0 11.966-9.7 21.667-21.67 21.667-11.96 0-21.67-9.709-21.67-21.667 0-11.967 9.7-21.668 21.67-21.668v-21.668Z" transform="translate(-9104.14 -3875.509) scale(7.71973)"></path><path fill="#a6d2e4" d="M1826.32 774.767a43.342 43.342 0 0 0-31.43-31.43l-5.29 21.011a21.663 21.663 0 0 1 15.71 15.715l21.01-5.296Z" transform="translate(-9104.14 -3875.509) scale(7.71973)"></path><path fill="#fff" d="M1703.85 748.378c0-3.478-2.89-6.297-6.46-6.297h-18.99c-3.56 0-6.45 2.819-6.45 6.297v.474c0 3.477 2.89 6.296 6.45 6.296h18.99c3.57 0 6.46-2.819 6.46-6.296v-.474Z" transform="matrix(7.52982 0 0 7.71973 -8802.362 -3724.06)"></path><path fill="#fff" d="M1703.85 748.614c0-3.608-.9-6.532-2.01-6.533h-27.88c-1.11.001-2.01 2.925-2.01 6.533v.001c0 3.608.9 6.533 2.01 6.533h27.88c1.11 0 2.01-2.925 2.01-6.533v-.001Z" transform="matrix(14.2412 0 0 4.3843 -20023.447 -1060.07)"></path><path fill="#fff" d="M1703.85 748.614c0-3.608-.9-6.532-2.01-6.533h-27.88c-1.11.001-2.01 2.925-2.01 6.533v.001c0 3.608.9 6.533 2.01 6.533h27.88c1.11 0 2.01-2.925 2.01-6.533v-.001Z" transform="matrix(14.2412 0 0 4.3843 -20023.447 -975.076)"></path><path fill="#fff" d="M1703.85 748.378c0-1.67-.36-3.272-1-4.452-.64-1.181-1.51-1.845-2.41-1.845h-25.08c-1.88 0-3.41 2.819-3.41 6.297v.474c0 1.669.36 3.271 1 4.452.64 1.18 1.51 1.844 2.41 1.844h25.08c1.88 0 3.41-2.819 3.41-6.296v-.474Z" transform="matrix(14.2412 0 0 7.71973 -20023.447 -3071.104)"></path><path fill="#fff" d="M1703.85 748.611c0-1.731-.08-3.392-.23-4.617-.15-1.225-.36-1.913-.57-1.913h-30.3c-.21 0-.42.688-.57 1.913-.14 1.225-.23 2.886-.23 4.617v.007c0 1.732.09 3.393.23 4.617.15 1.225.36 1.913.57 1.913h30.3c.21 0 .42-.688.57-1.913.15-1.224.23-2.885.23-4.617v-.007Z" transform="matrix(37.12202 0 0 4.53265 -58279.033 -441.827)"></path><path fill="#fff" d="M1703.85 748.611c0-1.731-.08-3.392-.23-4.617-.15-1.225-.36-1.913-.57-1.913h-30.3c-.21 0-.42.688-.57 1.913-.14 1.225-.23 2.886-.23 4.617v.007c0 1.732.09 3.393.23 4.617.15 1.225.36 1.913.57 1.913h30.3c.21 0 .42-.688.57-1.913.15-1.224.23-2.885.23-4.617v-.007Z" transform="matrix(37.12202 0 0 4.53265 -58279.033 -322.21)"></path><path fill="#fff" d="M1703.85 748.611c0-1.731-.08-3.392-.23-4.617-.15-1.225-.36-1.913-.57-1.913h-30.3c-.21 0-.42.688-.57 1.913-.14 1.225-.23 2.886-.23 4.617v.007c0 1.732.09 3.393.23 4.617.15 1.225.36 1.913.57 1.913h30.3c.21 0 .42-.688.57-1.913.15-1.224.23-2.885.23-4.617v-.007Z" transform="matrix(37.12202 0 0 4.53265 -58279.033 -202.593)"></path><path fill="#f29f05" d="M1801.56 1193.15h-38.09v10.27l-30.93-20.54 30.93-20.54v10.27h38.09v20.54Z" transform="rotate(-89.835 6467.125 20019.522) scale(13.95934)"></path><path fill="#fff" fill-rule="nonzero" d="M1698.69 575.454c0-4.787 1.56-8.673 4.66-11.656 3.11-2.983 7.19-4.475 12.22-4.475 5.11 0 9.22 1.474 12.33 4.421 3.11 2.948 4.66 6.941 4.66 11.978v3.859c0 4.823-1.55 8.7-4.66 11.63-3.11 2.929-7.18 4.394-12.22 4.394-5.07 0-9.17-1.474-12.3-4.421-3.13-2.948-4.69-6.923-4.69-11.924v-3.806Zm10.29 4.127c0 2.144.62 3.868 1.85 5.172 1.23 1.304 2.85 1.956 4.85 1.956 2 0 3.59-.661 4.77-1.983 1.18-1.322 1.77-3.091 1.77-5.306v-3.966c0-2.143-.59-3.876-1.77-5.198-1.18-1.322-2.81-1.983-4.88-1.983-1.96 0-3.55.652-4.77 1.956-1.21 1.304-1.82 3.117-1.82 5.44v3.912Zm27.01 39.766c0-4.824 1.57-8.709 4.72-11.657 3.14-2.947 7.21-4.421 12.22-4.421 5.07 0 9.17 1.456 12.3 4.368 3.12 2.912 4.68 6.922 4.68 12.031v3.859c0 4.788-1.53 8.655-4.6 11.603-3.08 2.947-7.17 4.421-12.28 4.421-5.14 0-9.27-1.483-12.38-4.448-3.1-2.965-4.66-6.896-4.66-11.79v-3.966Zm10.29 4.18c0 1.965.64 3.644 1.93 5.038 1.29 1.393 2.89 2.09 4.82 2.09 4.36 0 6.54-2.412 6.54-7.235v-4.073c0-2.144-.61-3.868-1.82-5.172-1.21-1.304-2.82-1.956-4.82-1.956-2.01 0-3.61.652-4.83 1.956-1.21 1.304-1.82 3.082-1.82 5.333v4.019Zm-27.55 9.111-7.55-4.073 38.1-60.989 7.56 4.073-38.11 60.989Z" transform="matrix(-3.7896 -.0109 .01314 -4.56614 9586.336 4614.492)"></path><path fill="#03222f" d="M1358.95 1066.85h457.854v8.317H1358.95z" transform="matrix(7.71973 0 0 2.79074 -8997.57 1667.433)"></path><path fill="#03222f" d="M1358.95 1066.85h457.854v8.317H1358.95z" transform="matrix(.82712 0 0 2.96585 -127.553 1483.526)"></path><g transform="translate(-7287.56 -2249.743) scale(6.56247)"><path fill="#6993a4" d="M1832.5 1051.11c-.36.69-1.18.99-1.9.7a1.51 1.51 0 0 1-.88-1.83c.65-2.41 1.44-4.78 2.22-7.1 5.79-17.25 14.13-32.74 28.91-43.864 7.18-5.402 16.92-10.461 26.23-9.185 4.41.603 9.33 3.149 9.11 8.246-.38 9.113-11.31 16.233-17.99 20.663-13.05 8.66-35.04 17.89-45.7 32.37Z"></path><clipPath id="j"><path d="M1832.5 1051.11c-.36.69-1.18.99-1.9.7a1.51 1.51 0 0 1-.88-1.83c.65-2.41 1.44-4.78 2.22-7.1 5.79-17.25 14.13-32.74 28.91-43.864 7.18-5.402 16.92-10.461 26.23-9.185 4.41.603 9.33 3.149 9.11 8.246-.38 9.113-11.31 16.233-17.99 20.663-13.05 8.66-35.04 17.89-45.7 32.37Z"></path></clipPath><g clip-path="url(#j)"><path fill="#477282" d="M1855.6 999.788c1.04 2.592.6 5.662.06 8.312-.48 2.39-1.15 4.82-2.38 6.94-4.46 7.66-13.84 10.88-22.14 12.14-3.75.57-9.76.95-12.7-2.13-2.02-2.12-.56-4.16-.44-6.54.03-.63-.47-.78-1-.62-2.87.84-5.33 4.93-6.87 7.2-4.62 6.85-7.57 15.14-8.79 23.29-.43 2.87-1.07 6.88.78 9.42 2.32 3.19 7.6.75 10.29-.51.78-.37 1.56-.76 2.33-1.16.89-.46 1.78-.94 2.65-1.42 1.37-.75 2.71-1.55 4.04-2.35 8.13-4.86 46.98-25.05 52.1-34.6 5.34-9.97-8.7-14.59-17.93-17.972Z" transform="translate(-337.245 -216.062) scale(1.20146)"></path></g></g><g transform="matrix(-7.32075 0 0 7.32075 18067.252 -3048.217)"><path fill="#6993a4" d="M1833.04 1050.4a1.663 1.663 0 0 1-3.05-1.28c.57-2.12 1.27-4.2 1.95-6.24 5.79-17.25 14.13-32.74 28.91-43.864 7.18-5.402 16.92-10.461 26.23-9.185 4.41.603 9.33 3.149 9.11 8.246-.38 9.113-11.31 16.233-17.99 20.663-12.83 8.52-34.32 17.59-45.16 31.66Z"></path><clipPath id="k"><path d="M1833.04 1050.4a1.663 1.663 0 0 1-3.05-1.28c.57-2.12 1.27-4.2 1.95-6.24 5.79-17.25 14.13-32.74 28.91-43.864 7.18-5.402 16.92-10.461 26.23-9.185 4.41.603 9.33 3.149 9.11 8.246-.38 9.113-11.31 16.233-17.99 20.663-12.83 8.52-34.32 17.59-45.16 31.66Z"></path></clipPath><g clip-path="url(#k)"><path fill="#477282" d="M1855.6 999.788c1.04 2.592.6 5.662.06 8.312-.48 2.39-1.15 4.82-2.38 6.94-4.46 7.66-13.84 10.88-22.14 12.14-3.75.57-9.76.95-12.7-2.13-2.02-2.12-.56-4.16-.44-6.54.03-.63-.47-.78-1-.62-2.87.84-5.33 4.93-6.87 7.2-4.62 6.85-7.57 15.14-8.79 23.29-.43 2.87-1.07 6.88.78 9.42 2.32 3.19 7.6.75 10.29-.51.78-.37 1.56-.76 2.33-1.16.89-.46 1.78-.94 2.65-1.42 1.37-.75 2.71-1.55 4.04-2.35 8.13-4.86 46.98-25.05 52.1-34.6 5.34-9.97-8.7-14.59-17.93-17.972Z" transform="translate(-337.245 -216.062) scale(1.20146)"></path></g></g><g transform="scale(-9.21175 9.21175) rotate(-32.352 -289.001 4810.137)"><path fill="#6993a4" d="M1830.23 1054.6c-.18.43-.66.64-1.1.5-.44-.14-.7-.6-.59-1.05.93-3.8 2.18-7.54 3.4-11.17 5.79-17.25 14.13-32.74 28.91-43.864 7.18-5.402 16.92-10.461 26.23-9.185 4.41.603 9.33 3.149 9.11 8.246-.38 9.113-11.31 16.233-17.99 20.663-14.07 9.34-38.53 19.34-47.97 35.86Z"></path><clipPath id="l"><path d="M1830.23 1054.6c-.18.43-.66.64-1.1.5-.44-.14-.7-.6-.59-1.05.93-3.8 2.18-7.54 3.4-11.17 5.79-17.25 14.13-32.74 28.91-43.864 7.18-5.402 16.92-10.461 26.23-9.185 4.41.603 9.33 3.149 9.11 8.246-.38 9.113-11.31 16.233-17.99 20.663-14.07 9.34-38.53 19.34-47.97 35.86Z"></path></clipPath><g clip-path="url(#l)"><path fill="#477282" d="M1855.6 999.788c1.04 2.592.6 5.662.06 8.312-.48 2.39-1.15 4.82-2.38 6.94-4.46 7.66-13.84 10.88-22.14 12.14-3.75.57-9.76.95-12.7-2.13-2.02-2.12-.56-4.16-.44-6.54.03-.63-.47-.78-1-.62-2.87.84-5.33 4.93-6.87 7.2-4.62 6.85-7.57 15.14-8.79 23.29-.43 2.87-1.07 6.88.78 9.42 2.32 3.19 7.6.75 10.29-.51.78-.37 1.56-.76 2.33-1.16.89-.46 1.78-.94 2.65-1.42 1.37-.75 2.71-1.55 4.04-2.35 8.13-4.86 46.98-25.05 52.1-34.6 5.34-9.97-8.7-14.59-17.93-17.972Z" transform="translate(-337.245 -216.062) scale(1.20146)"></path></g></g></svg>