<svg xmlns="http://www.w3.org/2000/svg" xmlns:xlink="http://www.w3.org/1999/xlink" viewBox="0 0 64 64" id="group-discussion"><defs><linearGradient id="a" x1="32" x2="32" y1="3" y2="30" gradientUnits="userSpaceOnUse"><stop offset="0" stop-color="#42bfff"></stop><stop offset="1" stop-color="#1174ac"></stop></linearGradient><linearGradient id="d" x1="13" x2="13" y1="49" y2="61" xlink:href="#a"></linearGradient><linearGradient id="e" x1="13" x2="13" y1="37" y2="47" xlink:href="#a"></linearGradient><linearGradient id="f" x1="51" x2="51" y1="49" y2="61" xlink:href="#a"></linearGradient><linearGradient id="g" x1="51" x2="51" y1="37" y2="47" xlink:href="#a"></linearGradient><linearGradient id="h" y1="49" y2="61" xlink:href="#a"></linearGradient><linearGradient id="i" y1="37" y2="47" xlink:href="#a"></linearGradient><linearGradient id="b" x1="25" x2="25" y1="30" y2="20" gradientUnits="userSpaceOnUse"><stop offset="0" stop-color="#002237"></stop><stop offset="1" stop-color="#003352"></stop></linearGradient><linearGradient id="j" y1="18" y2="8" xlink:href="#b"></linearGradient><linearGradient id="c" x1="32" x2="32" y1="3" y2="30" gradientUnits="userSpaceOnUse"><stop offset="0" stop-color="#000406"></stop><stop offset="1" stop-color="#001521"></stop></linearGradient><linearGradient id="k" x1="13" x2="13" y1="49" y2="61" xlink:href="#c"></linearGradient><linearGradient id="l" x1="13" x2="13" y1="37" y2="47" xlink:href="#c"></linearGradient><linearGradient id="m" x1="51" x2="51" y1="49" y2="61" xlink:href="#c"></linearGradient><linearGradient id="n" x1="51" x2="51" y1="37" y2="47" xlink:href="#c"></linearGradient><linearGradient id="o" y1="49" y2="61" xlink:href="#c"></linearGradient><linearGradient id="p" y1="37" y2="47" xlink:href="#c"></linearGradient><linearGradient id="q" x1="25" x2="25" y1="8" y2="18" xlink:href="#c"></linearGradient><linearGradient id="r" x1="41" x2="41" y1="11" y2="13" xlink:href="#c"></linearGradient><linearGradient id="s" x1="41" x2="41" y1="19" y2="21" xlink:href="#c"></linearGradient><linearGradient id="t" x1="39" x2="39" y1="15" y2="17" xlink:href="#c"></linearGradient></defs><g><rect width="42" height="27" x="11" y="3" fill="url(#a)" rx="5"></rect><path fill="url(#d)" d="M16 49h-6a5 5 0 0 0-5 5v6a1 1 0 0 0 1 1h14a1 1 0 0 0 1-1v-6a5 5 0 0 0-5-5Z"></path><circle cx="13" cy="42" r="5" fill="url(#e)"></circle><path fill="url(#f)" d="M54 49h-6a5 5 0 0 0-5 5v6a1 1 0 0 0 1 1h14a1 1 0 0 0 1-1v-6a5 5 0 0 0-5-5Z"></path><circle cx="51" cy="42" r="5" fill="url(#g)"></circle><path fill="url(#h)" d="M35 49h-6a5 5 0 0 0-5 5v6a1 1 0 0 0 1 1h14a1 1 0 0 0 1-1v-6a5 5 0 0 0-5-5Z"></path><circle cx="32" cy="42" r="5" fill="url(#i)"></circle><path fill="url(#b)" d="M33 25v5H17v-5a5 5 0 0 1 5-5h6a5 5 0 0 1 5 5Z"></path><circle cx="25" cy="13" r="5" fill="url(#j)"></circle></g><g><path fill="url(#c)" d="M48 3H16a5 5 0 0 0-5 5v17a5 5 0 0 0 5 5h32a5 5 0 0 0 5-5V8a5 5 0 0 0-5-5ZM19 28v-3a3 3 0 0 1 3-3h6a3 3 0 0 1 3 3v3Zm32-3a3 3 0 0 1-3 3H33v-3a5 5 0 0 0-5-5h-6a5 5 0 0 0-5 5v3h-1a3 3 0 0 1-3-3V8a3 3 0 0 1 3-3h32a3 3 0 0 1 3 3Z"></path><path fill="url(#k)" d="M16 49h-6a5 5 0 0 0-5 5v6a1 1 0 0 0 1 1h14a1 1 0 0 0 1-1v-6a5 5 0 0 0-5-5Zm3 10H7v-5a3 3 0 0 1 3-3h6a3 3 0 0 1 3 3Z"></path><path fill="url(#l)" d="M8 42a5 5 0 1 0 5-5 5 5 0 0 0-5 5Zm5-3a3 3 0 1 1-3 3 3 3 0 0 1 3-3Z"></path><path fill="url(#m)" d="M54 49h-6a5 5 0 0 0-5 5v6a1 1 0 0 0 1 1h14a1 1 0 0 0 1-1v-6a5 5 0 0 0-5-5Zm3 10H45v-5a3 3 0 0 1 3-3h6a3 3 0 0 1 3 3Z"></path><path fill="url(#n)" d="M46 42a5 5 0 1 0 5-5 5 5 0 0 0-5 5Zm8 0a3 3 0 1 1-3-3 3 3 0 0 1 3 3Z"></path><path fill="url(#o)" d="M35 49h-6a5 5 0 0 0-5 5v6a1 1 0 0 0 1 1h14a1 1 0 0 0 1-1v-6a5 5 0 0 0-5-5Zm3 10H26v-5a3 3 0 0 1 3-3h6a3 3 0 0 1 3 3Z"></path><path fill="url(#p)" d="M27 42a5 5 0 1 0 5-5 5 5 0 0 0-5 5Zm8 0a3 3 0 1 1-3-3 3 3 0 0 1 3 3Z"></path><path fill="url(#q)" d="M25 8a5 5 0 1 0 5 5 5 5 0 0 0-5-5Zm0 8a3 3 0 1 1 3-3 3 3 0 0 1-3 3Z"></path><path fill="url(#r)" d="M35 11h12v2H35z"></path><path fill="url(#s)" d="M35 19h12v2H35z"></path><path fill="url(#t)" d="M35 15h8v2h-8z"></path></g></svg>